# xmcd CD database file
#
# Track frame offsets:
#	150
#	23135
#	41610
#
# Disc length: 855 seconds
#
# Revision: 0
# Processed by: cddbd v1.5PL3 Copyright (c) Steve Scherf et al.
# Submitted via: CDex 1.50
#
DISCID=1b035503
DTITLE=平川地一丁目 - 桜の隠す別れ道
DYEAR=2004
DGENRE=JPop
TTITLE0=桜の隠す別れ道
TTITLE1=君のくつ
TTITLE2=サヨナラの鐘
EXTD=YEAR: 2004
EXTT0=
EXTT1=
EXTT2=
PLAYORDER=
